<?xml version="1.0" encoding="utf-8"?>
<!-- Svg Vector Icons : http://www.onlinewebfonts.com/icon -->
<!DOCTYPE svg PUBLIC "-//W3C//DTD SVG 1.1//EN" "http://www.w3.org/Graphics/SVG/1.1/DTD/svg11.dtd">
<svg version="1.1" xmlns="http://www.w3.org/2000/svg" xmlns:xlink="http://www.w3.org/1999/xlink" x="0px" y="0px" viewBox="0 0 1000 1000" enable-background="new 0 0 1000 1000" xml:space="preserve">
<metadata> Svg Vector Icons : http://www.onlinewebfonts.com/icon </metadata>
<g><path fill="white" d="M961,877.3c-10.2,0-20-5.4-25.3-14.7C819,656.2,667.2,632.6,452.2,631l0,194.1c0,11.3-6.6,21.6-16.8,26.3c-10.3,4.8-22.3,3.1-31-4.2L20.3,522.2c-6.4-5.4-10.1-13.3-10.3-21.7c-0.1-8.4,3.3-16.4,9.5-22l384.1-348.3c8.5-7.7,20.8-9.7,31.3-5c10.5,4.6,17.3,15.1,17.3,26.5v165.2c443.4,21,536.5,521.3,537.4,526.5c2.4,13.9-5.5,27.6-18.8,32.3C967.5,876.8,964.2,877.3,961,877.3z M83.1,499.3l311.1,263.3V601.9c0-16.1,13-29,29-29c185.5,0,335.9,10.9,457.6,123.7c-12.4-27.6-27.5-56.9-45.7-86c-98.2-156.8-236.8-236.3-411.9-236.3c-16,0-29-13-29-29v-128L83.1,499.3z"/></g>
</svg>